<?xml version="1.0" encoding="UTF-8" standalone="no"?>
<!-- Created with Inkscape (http://www.inkscape.org/) -->

<svg
   width="450mm"
   height="180mm"
   viewBox="0 0 450 180"
   version="1.1"
   id="svg1"
   xml:space="preserve"
   inkscape:version="1.4.2 (2aeb623e1d, 2025-05-12)"
   sodipodi:docname="tvboptim_logo_long.svg"
   xmlns:inkscape="http://www.inkscape.org/namespaces/inkscape"
   xmlns:sodipodi="http://sodipodi.sourceforge.net/DTD/sodipodi-0.dtd"
   xmlns="http://www.w3.org/2000/svg"
   xmlns:svg="http://www.w3.org/2000/svg"><sodipodi:namedview
     id="namedview1"
     pagecolor="#ffffff"
     bordercolor="#000000"
     borderopacity="0.25"
     inkscape:showpageshadow="2"
     inkscape:pageopacity="0.0"
     inkscape:pagecheckerboard="0"
     inkscape:deskcolor="#d1d1d1"
     inkscape:document-units="mm"
     inkscape:zoom="0.79464085"
     inkscape:cx="855.10328"
     inkscape:cy="91.8654"
     inkscape:window-width="3840"
     inkscape:window-height="2063"
     inkscape:window-x="2256"
     inkscape:window-y="58"
     inkscape:window-maximized="1"
     inkscape:current-layer="layer1" /><defs
     id="defs1"><inkscape:perspective
       sodipodi:type="inkscape:persp3d"
       inkscape:vp_x="78.328758 : 96.481512 : 1"
       inkscape:vp_y="0 : 1000 : 0"
       inkscape:vp_z="200.00001 : 80.000003 : 1"
       inkscape:persp3d-origin="100 : 46.666669 : 1"
       id="perspective16" /><clipPath
       id="clip-0-d7b39a44"><path
         clip-rule="nonzero"
         d="m 16,229 h 65 v 76 H 16 Z m 0,0"
         id="path1" /></clipPath><clipPath
       id="clip-1-d7b39a44"><path
         clip-rule="nonzero"
         d="m 514,492 h 75 v 62 h -75 z m 0,0"
         id="path2" /></clipPath><clipPath
       id="clip-2-d7b39a44"><path
         clip-rule="nonzero"
         d="m 404,16 h 75 v 62 h -75 z m 0,0"
         id="path3-8" /></clipPath><clipPath
       id="clip-3-d7b39a44"><path
         clip-rule="nonzero"
         d="m 549,183 h 65 v 75 h -65 z m 0,0"
         id="path4" /></clipPath></defs><g
     inkscape:label="Layer 1"
     inkscape:groupmode="layer"
     id="layer1"><g
       id="g21"
       transform="matrix(0.32622978,0,0,0.30961608,-3.2615785,-0.09826391)"><path
         fill="none"
         stroke-width="8"
         stroke-linecap="butt"
         stroke-linejoin="miter"
         stroke="#000000"
         stroke-opacity="1"
         stroke-miterlimit="1.1547"
         d="M 43.183594,267.03906 267.55859,311.61328"
         id="path5" /><path
         fill="none"
         stroke-width="8"
         stroke-linecap="butt"
         stroke-linejoin="miter"
         stroke="#000000"
         stroke-opacity="1"
         stroke-miterlimit="1.1547"
         d="M 43.183594,267.03906 175.50781,137.71484"
         id="path6" /><path
         fill="none"
         stroke-width="8"
         stroke-linecap="butt"
         stroke-linejoin="miter"
         stroke="#000000"
         stroke-opacity="1"
         stroke-miterlimit="1.1547"
         d="M 43.183594,267.03906 273.81641,71.671875"
         id="path7" /><path
         fill="none"
         stroke-width="8"
         stroke-linecap="butt"
         stroke-linejoin="miter"
         stroke="#000000"
         stroke-opacity="1"
         stroke-miterlimit="1.1547"
         d="M 43.183594,267.03906 150.42969,412.38672"
         id="path8" /><path
         fill="none"
         stroke-width="8"
         stroke-linecap="butt"
         stroke-linejoin="miter"
         stroke="#000000"
         stroke-opacity="1"
         stroke-miterlimit="1.1547"
         d="M 43.183594,267.03906 346.64062,414"
         id="path9" /><path
         fill="none"
         stroke-width="8"
         stroke-linecap="butt"
         stroke-linejoin="miter"
         stroke="#000000"
         stroke-opacity="1"
         stroke-miterlimit="1.1547"
         d="M 551.3125,529.54687 267.55859,311.61328"
         id="path10" /><path
         fill="none"
         stroke-width="8"
         stroke-linecap="butt"
         stroke-linejoin="miter"
         stroke="#000000"
         stroke-opacity="1"
         stroke-miterlimit="1.1547"
         d="M 551.3125,529.54687 586.81641,220.86328"
         id="path11" /><path
         fill="none"
         stroke-width="8"
         stroke-linecap="butt"
         stroke-linejoin="miter"
         stroke="#000000"
         stroke-opacity="1"
         stroke-miterlimit="1.1547"
         d="M 551.3125,529.54687 419.94531,264.39453"
         id="path12" /><path
         fill="none"
         stroke-width="8"
         stroke-linecap="butt"
         stroke-linejoin="miter"
         stroke="#000000"
         stroke-opacity="1"
         stroke-miterlimit="1.1547"
         d="M 551.3125,529.54687 346.64062,414"
         id="path13" /><path
         fill="none"
         stroke-width="8"
         stroke-linecap="butt"
         stroke-linejoin="miter"
         stroke="#000000"
         stroke-opacity="1"
         stroke-miterlimit="1.1547"
         d="M 267.55859,311.61328 175.50781,137.71484"
         id="path14" /><path
         fill="none"
         stroke-width="8"
         stroke-linecap="butt"
         stroke-linejoin="miter"
         stroke="#000000"
         stroke-opacity="1"
         stroke-miterlimit="1.1547"
         d="M 267.55859,311.61328 441.91016,40.453125"
         id="path15" /><path
         fill="none"
         stroke-width="8"
         stroke-linecap="butt"
         stroke-linejoin="miter"
         stroke="#000000"
         stroke-opacity="1"
         stroke-miterlimit="1.1547"
         d="M 267.55859,311.61328 273.81641,71.671875"
         id="path16" /><path
         fill="none"
         stroke-width="8"
         stroke-linecap="butt"
         stroke-linejoin="miter"
         stroke="#000000"
         stroke-opacity="1"
         stroke-miterlimit="1.1547"
         d="M 267.55859,311.61328 150.42969,412.38672"
         id="path17" /><path
         fill="none"
         stroke-width="8"
         stroke-linecap="butt"
         stroke-linejoin="miter"
         stroke="#000000"
         stroke-opacity="1"
         stroke-miterlimit="1.1547"
         d="M 267.55859,311.61328 346.64062,414"
         id="path18" /><path
         fill="none"
         stroke-width="8"
         stroke-linecap="butt"
         stroke-linejoin="miter"
         stroke="#000000"
         stroke-opacity="1"
         stroke-miterlimit="1.1547"
         d="M 175.50781,137.71484 441.91016,40.453125"
         id="path19" /><path
         fill="none"
         stroke-width="8"
         stroke-linecap="butt"
         stroke-linejoin="miter"
         stroke="#000000"
         stroke-opacity="1"
         stroke-miterlimit="1.1547"
         d="m 175.50781,137.71484 98.3086,-66.042965"
         id="path20" /><path
         fill="none"
         stroke-width="8"
         stroke-linecap="butt"
         stroke-linejoin="miter"
         stroke="#000000"
         stroke-opacity="1"
         stroke-miterlimit="1.1547"
         d="m 175.50781,137.71484 244.4375,126.67969"
         id="path21" /><path
         fill="none"
         stroke-width="8"
         stroke-linecap="butt"
         stroke-linejoin="miter"
         stroke="#000000"
         stroke-opacity="1"
         stroke-miterlimit="1.1547"
         d="M 175.50781,137.71484 150.42969,412.38672"
         id="path22" /><path
         fill="none"
         stroke-width="8"
         stroke-linecap="butt"
         stroke-linejoin="miter"
         stroke="#000000"
         stroke-opacity="1"
         stroke-miterlimit="1.1547"
         d="M 175.50781,137.71484 346.64062,414"
         id="path23" /><path
         fill="none"
         stroke-width="8"
         stroke-linecap="butt"
         stroke-linejoin="miter"
         stroke="#000000"
         stroke-opacity="1"
         stroke-miterlimit="1.1547"
         d="M 441.91016,40.453125 586.81641,220.86328"
         id="path24" /><path
         fill="none"
         stroke-width="8"
         stroke-linecap="butt"
         stroke-linejoin="miter"
         stroke="#000000"
         stroke-opacity="1"
         stroke-miterlimit="1.1547"
         d="M 441.91016,40.453125 419.94531,264.39453"
         id="path25" /><path
         fill="none"
         stroke-width="8"
         stroke-linecap="butt"
         stroke-linejoin="miter"
         stroke="#000000"
         stroke-opacity="1"
         stroke-miterlimit="1.1547"
         d="M 441.91016,40.453125 346.64062,414"
         id="path26" /><path
         fill="none"
         stroke-width="8"
         stroke-linecap="butt"
         stroke-linejoin="miter"
         stroke="#000000"
         stroke-opacity="1"
         stroke-miterlimit="1.1547"
         d="m 586.81641,220.86328 -313,-149.191405"
         id="path27" /><path
         fill="none"
         stroke-width="8"
         stroke-linecap="butt"
         stroke-linejoin="miter"
         stroke="#000000"
         stroke-opacity="1"
         stroke-miterlimit="1.1547"
         d="m 586.81641,220.86328 -166.8711,43.53125"
         id="path28" /><path
         fill="none"
         stroke-width="8"
         stroke-linecap="butt"
         stroke-linejoin="miter"
         stroke="#000000"
         stroke-opacity="1"
         stroke-miterlimit="1.1547"
         d="M 586.81641,220.86328 346.64062,414"
         id="path29" /><path
         fill="none"
         stroke-width="8"
         stroke-linecap="butt"
         stroke-linejoin="miter"
         stroke="#000000"
         stroke-opacity="1"
         stroke-miterlimit="1.1547"
         d="M 273.81641,71.671875 419.94531,264.39453"
         id="path30" /><path
         fill="none"
         stroke-width="8"
         stroke-linecap="butt"
         stroke-linejoin="miter"
         stroke="#000000"
         stroke-opacity="1"
         stroke-miterlimit="1.1547"
         d="M 273.81641,71.671875 150.42969,412.38672"
         id="path31" /><path
         fill="none"
         stroke-width="8"
         stroke-linecap="butt"
         stroke-linejoin="miter"
         stroke="#000000"
         stroke-opacity="1"
         stroke-miterlimit="1.1547"
         d="M 419.94531,264.39453 150.42969,412.38672"
         id="path32" /><path
         fill="none"
         stroke-width="8"
         stroke-linecap="butt"
         stroke-linejoin="miter"
         stroke="#000000"
         stroke-opacity="1"
         stroke-miterlimit="1.1547"
         d="M 419.94531,264.39453 346.64062,414"
         id="path33" /><path
         fill="none"
         stroke-width="8"
         stroke-linecap="butt"
         stroke-linejoin="miter"
         stroke="#000000"
         stroke-opacity="1"
         stroke-miterlimit="1.1547"
         d="M 150.42969,412.38672 346.64062,414"
         id="path34" /><path
         fill-rule="nonzero"
         fill="#a6a6a6"
         fill-opacity="1"
         d="m 66.09375,267.03906 c 0,-12.65625 -10.257812,-22.91406 -22.910156,-22.91406 -12.65625,0 -22.914063,10.25781 -22.914063,22.91406 0,12.65235 10.257813,22.91016 22.914063,22.91016 12.652344,0 22.910156,-10.25781 22.910156,-22.91016 z m 0,0"
         id="path35"
         style="fill:#26a69a;fill-opacity:1" /><g
         clip-path="url(#clip-0-d7b39a44)"
         id="g36"><path
           fill="none"
           stroke-width="5"
           stroke-linecap="butt"
           stroke-linejoin="miter"
           stroke="#000000"
           stroke-opacity="1"
           stroke-miterlimit="2"
           d="m 66.09375,267.03906 c 0,-12.65625 -10.257812,-22.91406 -22.910156,-22.91406 -12.65625,0 -22.914063,10.25781 -22.914063,22.91406 0,12.65235 10.257813,22.91016 22.914063,22.91016 12.652344,0 22.910156,-10.25781 22.910156,-22.91016 z m 0,0"
           id="path36" /></g><path
         fill-rule="nonzero"
         fill="#a6a6a6"
         fill-opacity="1"
         d="m 574.22656,529.54687 c 0,-12.65625 -10.25781,-22.91406 -22.91406,-22.91406 -12.65234,0 -22.91406,10.25781 -22.91406,22.91406 0,12.65235 10.26172,22.91016 22.91406,22.91016 12.65625,0 22.91406,-10.25781 22.91406,-22.91016 z m 0,0"
         id="path37"
         style="fill:#5e97f6;fill-opacity:1" /><g
         clip-path="url(#clip-1-d7b39a44)"
         id="g38"><path
           fill="none"
           stroke-width="5"
           stroke-linecap="butt"
           stroke-linejoin="miter"
           stroke="#000000"
           stroke-opacity="1"
           stroke-miterlimit="2"
           d="m 574.22656,529.54687 c 0,-12.65625 -10.25781,-22.91406 -22.91406,-22.91406 -12.65234,0 -22.91406,10.25781 -22.91406,22.91406 0,12.65235 10.26172,22.91016 22.91406,22.91016 12.65625,0 22.91406,-10.25781 22.91406,-22.91016 z m 0,0"
           id="path38" /></g><path
         fill-rule="nonzero"
         fill="#a6a6a6"
         fill-opacity="1"
         stroke-width="5"
         stroke-linecap="butt"
         stroke-linejoin="miter"
         stroke="#000000"
         stroke-opacity="1"
         stroke-miterlimit="2"
         d="m 290.47266,311.61328 c 0,-12.65234 -10.25782,-22.91016 -22.91407,-22.91016 -12.65234,0 -22.91015,10.25782 -22.91015,22.91016 0,12.65625 10.25781,22.91406 22.91015,22.91406 12.65625,0 22.91407,-10.25781 22.91407,-22.91406 z m 0,0"
         id="path39"
         style="fill:#5e97f6;fill-opacity:1" /><path
         fill-rule="nonzero"
         fill="#a6a6a6"
         fill-opacity="1"
         stroke-width="5"
         stroke-linecap="butt"
         stroke-linejoin="miter"
         stroke="#000000"
         stroke-opacity="1"
         stroke-miterlimit="2"
         d="m 198.42187,137.71484 c 0,-12.65625 -10.25781,-22.91406 -22.91406,-22.91406 -12.65234,0 -22.91015,10.25781 -22.91015,22.91406 0,12.65235 10.25781,22.91016 22.91015,22.91016 12.65625,0 22.91406,-10.25781 22.91406,-22.91016 z m 0,0"
         id="path40"
         style="fill:#ea80fc;fill-opacity:1" /><path
         fill-rule="nonzero"
         fill="#a6a6a6"
         fill-opacity="1"
         d="m 464.82422,40.453125 c 0,-12.652344 -10.25781,-22.910156 -22.91406,-22.910156 -12.65235,0 -22.91016,10.257812 -22.91016,22.910156 0,12.65625 10.25781,22.914063 22.91016,22.914063 12.65625,0 22.91406,-10.257813 22.91406,-22.914063 z m 0,0"
         id="path41"
         style="fill:#5e97f6;fill-opacity:1" /><g
         clip-path="url(#clip-2-d7b39a44)"
         id="g42"><path
           fill="none"
           stroke-width="5"
           stroke-linecap="butt"
           stroke-linejoin="miter"
           stroke="#000000"
           stroke-opacity="1"
           stroke-miterlimit="2"
           d="m 464.82422,40.453125 c 0,-12.652344 -10.25781,-22.910156 -22.91406,-22.910156 -12.65235,0 -22.91016,10.257812 -22.91016,22.910156 0,12.65625 10.25781,22.914063 22.91016,22.914063 12.65625,0 22.91406,-10.257813 22.91406,-22.914063 z m 0,0"
           id="path42" /></g><path
         fill-rule="nonzero"
         fill="#a6a6a6"
         fill-opacity="1"
         d="m 609.73047,220.86328 c 0,-12.65625 -10.25781,-22.91406 -22.91406,-22.91406 -12.65235,0 -22.91016,10.25781 -22.91016,22.91406 0,12.65234 10.25781,22.91016 22.91016,22.91016 12.65625,0 22.91406,-10.25782 22.91406,-22.91016 z m 0,0"
         id="path43"
         style="fill:#26a69a;fill-opacity:1" /><g
         clip-path="url(#clip-3-d7b39a44)"
         id="g44"><path
           fill="none"
           stroke-width="5"
           stroke-linecap="butt"
           stroke-linejoin="miter"
           stroke="#000000"
           stroke-opacity="1"
           stroke-miterlimit="2"
           d="m 609.73047,220.86328 c 0,-12.65625 -10.25781,-22.91406 -22.91406,-22.91406 -12.65235,0 -22.91016,10.25781 -22.91016,22.91406 0,12.65234 10.25781,22.91016 22.91016,22.91016 12.65625,0 22.91406,-10.25782 22.91406,-22.91016 z m 0,0"
           id="path44" /></g><path
         fill-rule="nonzero"
         fill="#a6a6a6"
         fill-opacity="1"
         stroke-width="5"
         stroke-linecap="butt"
         stroke-linejoin="miter"
         stroke="#000000"
         stroke-opacity="1"
         stroke-miterlimit="2"
         d="m 296.73047,71.671875 c 0,-12.652344 -10.25781,-22.910156 -22.91406,-22.910156 -12.65235,0 -22.91016,10.257812 -22.91016,22.910156 0,12.65625 10.25781,22.914063 22.91016,22.914063 12.65625,0 22.91406,-10.257813 22.91406,-22.914063 z m 0,0"
         id="path45"
         style="fill:#26a69a;fill-opacity:1" /><path
         fill-rule="nonzero"
         fill="#a6a6a6"
         fill-opacity="1"
         stroke-width="5"
         stroke-linecap="butt"
         stroke-linejoin="miter"
         stroke="#000000"
         stroke-opacity="1"
         stroke-miterlimit="2"
         d="m 442.85937,264.39453 c 0,-12.65625 -10.26171,-22.91406 -22.91406,-22.91406 -12.65234,0 -22.91406,10.25781 -22.91406,22.91406 0,12.65234 10.26172,22.91016 22.91406,22.91016 12.65235,0 22.91406,-10.25782 22.91406,-22.91016 z m 0,0"
         id="path46"
         style="fill:#ea80fc;fill-opacity:1" /><path
         fill-rule="nonzero"
         fill="#a6a6a6"
         fill-opacity="1"
         stroke-width="5"
         stroke-linecap="butt"
         stroke-linejoin="miter"
         stroke="#000000"
         stroke-opacity="1"
         stroke-miterlimit="2"
         d="m 173.34375,412.38672 c 0,-12.65235 -10.25781,-22.91016 -22.91406,-22.91016 -12.65235,0 -22.91406,10.25781 -22.91406,22.91016 0,12.65625 10.26171,22.91406 22.91406,22.91406 12.65625,0 22.91406,-10.25781 22.91406,-22.91406 z m 0,0"
         id="path47"
         style="fill:#ea80fc;fill-opacity:1" /><path
         fill-rule="nonzero"
         fill="#a6a6a6"
         fill-opacity="1"
         stroke-width="5"
         stroke-linecap="butt"
         stroke-linejoin="miter"
         stroke="#000000"
         stroke-opacity="1"
         stroke-miterlimit="2"
         d="m 369.55469,414 c 0,-12.65234 -10.26172,-22.91016 -22.91407,-22.91016 -12.65625,0 -22.91406,10.25782 -22.91406,22.91016 0,12.65625 10.25781,22.91406 22.91406,22.91406 12.65235,0 22.91407,-10.25781 22.91407,-22.91406 z m 0,0"
         id="path48"
         style="fill:#26a69a;fill-opacity:1" /><path
         fill-rule="nonzero"
         fill="#a6a6a6"
         fill-opacity="1"
         stroke-width="5"
         stroke-linecap="butt"
         stroke-linejoin="miter"
         stroke="#000000"
         stroke-opacity="1"
         stroke-miterlimit="2"
         d="m 465.17238,40.231048 c 0,-12.65234 -10.25782,-22.91016 -22.91407,-22.91016 -12.65234,0 -22.91015,10.25782 -22.91015,22.91016 0,12.65625 10.25781,22.91406 22.91015,22.91406 12.65625,0 22.91407,-10.25781 22.91407,-22.91406 z m 0,0"
         id="path39-4"
         style="fill:#5e97f6;fill-opacity:1" /><path
         fill-rule="nonzero"
         fill="#a6a6a6"
         fill-opacity="1"
         stroke-width="5"
         stroke-linecap="butt"
         stroke-linejoin="miter"
         stroke="#000000"
         stroke-opacity="1"
         stroke-miterlimit="2"
         d="m 574.05224,529.83434 c 0,-12.65234 -10.25782,-22.91016 -22.91407,-22.91016 -12.65234,0 -22.91015,10.25782 -22.91015,22.91016 0,12.65625 10.25781,22.91406 22.91015,22.91406 12.65625,0 22.91407,-10.25781 22.91407,-22.91406 z m 0,0"
         id="path39-9"
         style="fill:#5e97f6;fill-opacity:1" /></g><text
       xml:space="preserve"
       style="font-style:normal;font-variant:normal;font-weight:normal;font-stretch:normal;font-size:86.7489px;font-family:JuliaMono;-inkscape-font-specification:'JuliaMono, Normal';font-variant-ligatures:normal;font-variant-caps:normal;font-variant-numeric:normal;font-variant-east-asian:normal;text-align:start;letter-spacing:-3.95795px;word-spacing:-0.835485px;writing-mode:lr-tb;direction:ltr;text-anchor:start;fill:#26a69a;fill-opacity:1;stroke:#040202;stroke-width:0;stroke-linejoin:round;stroke-miterlimit:100;stroke-dasharray:none;paint-order:fill markers stroke"
       x="204.74324"
       y="77.272461"
       id="text21"
       transform="scale(0.98901892,1.011103)"><tspan
         sodipodi:role="line"
         id="tspan21"
         style="word-spacing:-0.835485px;stroke-width:0"
         x="204.74324"
         y="77.272461"
         dx="0 1.5915025"><tspan
   style="word-spacing:-0.835485px;fill:#3a7db4;fill-opacity:1;stroke-width:0"
   id="tspan23">T</tspan>V<tspan
   style="word-spacing:-0.835485px;fill:#c450bf;fill-opacity:1;stroke-width:0"
   id="tspan24">B</tspan><tspan
   style="word-spacing:-0.835485px;fill:#000000;fill-opacity:1;stroke-width:0"
   id="tspan22" /></tspan></text><text
       xml:space="preserve"
       style="font-style:normal;font-variant:normal;font-weight:normal;font-stretch:normal;font-size:86.7489px;font-family:JuliaMono;-inkscape-font-specification:'JuliaMono, Normal';font-variant-ligatures:normal;font-variant-caps:normal;font-variant-numeric:normal;font-variant-east-asian:normal;text-align:start;letter-spacing:-3.95795px;word-spacing:-0.835485px;writing-mode:lr-tb;direction:ltr;text-anchor:start;fill:#26a69a;fill-opacity:1;stroke:#040202;stroke-width:0;stroke-linejoin:round;stroke-miterlimit:100;stroke-dasharray:none;paint-order:fill markers stroke"
       x="206.36206"
       y="149.63762"
       id="text21-1"
       transform="scale(0.98901892,1.011103)"><tspan
         sodipodi:role="line"
         id="tspan21-1"
         style="word-spacing:-0.835485px;stroke-width:0"
         x="206.36206"
         y="149.63762"><tspan
           style="word-spacing:-0.835485px;fill:#000000;fill-opacity:1;stroke-width:0"
           id="tspan22-4"
           dx="0 0 -7.2754412">Optim</tspan></tspan></text></g></svg>
